<?xml version="1.0" encoding="utf-8"?>
<!-- Generator: Adobe Illustrator 18.1.1, SVG Export Plug-In . SVG Version: 6.00 Build 0)  -->
<!DOCTYPE svg PUBLIC "-//W3C//DTD SVG 1.1//EN" "http://www.w3.org/Graphics/SVG/1.1/DTD/svg11.dtd">
<svg version="1.1" id="Layer_1" xmlns="http://www.w3.org/2000/svg" xmlns:xlink="http://www.w3.org/1999/xlink" x="0px" y="0px"
	 viewBox="246 156 300 300" enable-background="new 246 156 300 300" xml:space="preserve">
<g>
	<path fill="#FFFFFF" d="M408.8,300.8c-10.7,0-19.4,8.7-19.4,19.4c0,10.7,8.7,19.4,19.4,19.4c10.7,0,19.4-8.7,19.4-19.4
		C428.2,309.5,419.6,300.8,408.8,300.8z M408.8,330.9c-6,0-10.8-4.8-10.8-10.8s5-10.7,10.8-10.7c5.9,0,10.8,4.8,10.8,10.8
		C419.6,326.2,414.8,330.9,408.8,330.9z"/>
	<path fill="#FFFFFF" d="M355.6,417.9c-8.5,0-15.2,6.9-15.2,15.3s6.9,15.2,15.2,15.2s15.2-6.9,15.2-15.2
		C370.9,424.8,364.1,417.9,355.6,417.9z M355.6,439.9c-3.6,0-6.7-3-6.7-6.7s3-6.8,6.7-6.8s6.7,3,6.7,6.8
		C362.4,436.9,359.3,439.9,355.6,439.9z"/>
	<path fill="#FFFFFF" d="M344.2,357.3l-9.1-4.7c-3.4-1.8-7.4-1.9-10.7-0.4c-3.5,1.6-6.1,4.8-7.2,8.9l-1.3,5
		c-0.4,1.5-1.2,2.5-2.4,3.1c-1.1,0.5-2.5,0.4-3.9-0.3l-4-1.9c-3.8-1.8-7.8-1.9-11.2-0.3c-3.4,1.6-5.9,4.8-6.9,8.9l-1,4.3
		c-0.3,1.4-1,2.5-1.9,2.9c-1,0.4-2.2,0.2-3.4-0.4l-3-1.7c-3.6-2.1-7.7-2.4-11.1-0.8c-3.4,1.5-6.1,4.6-7.1,8.6l-2.7,10.3
		c-0.6,2.3,0.7,4.6,3,5.2c0.3,0.1,0.7,0.1,1.1,0.1c1.9,0,3.6-1.3,4.2-3.2l2.7-10.3c0.4-1.4,1.2-2.5,2.2-2.9c1.1-0.4,2.4-0.3,3.6,0.4
		l3,1.7c3.6,2.1,7.7,2.4,11.1,0.8s5.9-4.7,6.9-8.8l1-4.3c0.3-1.5,1.1-2.5,2.2-3c1.1-0.5,2.4-0.4,3.7,0.3l4,1.9
		c3.6,1.8,7.8,2.1,11.2,0.4c3.4-1.6,6.1-4.7,7.1-8.8l1.3-5c0.4-1.6,1.3-2.7,2.4-3.2c1-0.4,2.2-0.3,3.3,0.2l9.1,4.7
		c2.2,1.1,4.7,0.2,5.8-1.8C347.3,360.9,346.4,358.4,344.2,357.3z"/>
	<path fill="#FFFFFF" d="M539.1,191.8c-2.7-2.2-5-1-5-1l-4.9,5.8c-0.2,0.3-0.4,0.4-0.5,0.3c-0.2,0-1-0.4-1.7-1.7
		c-1.8-3.3-4.7-5.3-7.9-5.7c-3.3-0.3-6.8,1.3-9.1,4.4c-0.6,0.7-1.3,1.2-1.8,1.2c-0.5,0-1.2-0.5-1.6-1.4c-1.9-3.2-5-5.2-8.3-5.6
		c-3.4-0.3-6.9,1.3-9.4,4.3c-1.3,1.5-2.5,1.8-2.7,1.7c0,0-0.1,0-0.2-0.2l-3.7-6.3c-1.2-2.1-3.9-2.8-5.9-1.5
		c-2.1,1.2-2.8,3.9-1.5,5.9l3.7,6.3c1.5,2.5,4,4.2,6.9,4.5c3.5,0.3,7.1-1.4,9.9-4.7c0.7-0.8,1.5-1.3,2.2-1.3c0.8,0.1,1.5,1,1.7,1.4
		c1.9,3.3,5,5.3,8.5,5.6c3.4,0.2,6.8-1.4,9.1-4.4c0.7-1,1.4-1.2,1.7-1.2s0.7,0.4,1.2,1.2c1.9,3.5,5,5.9,8.3,6.2c0.3,0,0.6,0,1,0
		c2.5,0,5.1-1.2,7-3.3l5-5.8C540.7,196.4,541.8,194,539.1,191.8z"/>
	<path fill="#FFFFFF" d="M333.2,257.6c-1.2-0.5-2.5-0.5-3.8,0l-23.5,11c-2.2,1-3.1,3.5-2.1,5.7c1,2.2,3.5,3.1,5.7,2.1l18.6-8.8
		l6.8,31c0.4,1.7,1.8,3.1,3.6,3.3c1.3,0.2,2.5-0.2,3.4-1c0.4-0.3,0.7-0.7,1-1.3l8.6-16.2c1.1-2.2,0.3-4.7-1.8-5.8
		c-2.2-1.1-4.7-0.3-5.8,1.8l-3,5.8l-5.3-24.8C335.3,259.3,334.4,258.2,333.2,257.6z"/>
	<path fill="#FFFFFF" d="M540,277.6c-11.5-14.5-2.2-28.6-1.7-29.2c1.3-1.9,0.8-4.6-1.1-6c-1.9-1.4-4.6-0.8-6,1.1
		c-4.7,6.8-10.3,23.7,2.1,39.3c4,5,8.3,8.1,12.7,10v-9.7C543.8,281.8,541.8,279.9,540,277.6z"/>
	<path fill="#FFFFFF" d="M270.3,292.7c2.2-1,3.1-3.5,2.1-5.7c-1-2.2-3.5-3.1-5.7-2.1c0,0-3.9,1.7-9,1.7l0,0c-4.3,0-8.1-1.2-11.7-3.5
		v9.7c4.1,1.7,8.1,2.4,11.9,2.4C263.1,295.2,267.4,294.1,270.3,292.7z"/>
	<path fill="#FFFFFF" d="M462.1,279.7c0,0-0.3-2.5,0.6-5.2c1.2-3.9,4-6.7,8.2-8.2c10-3.9,16.5,3.7,16.7,4.2c1.5,1.8,4.2,2.2,6,0.7
		c1.8-1.5,2.2-4.2,0.7-6c-3.5-4.5-13.6-11.8-26.6-6.9c-13.1,5-15.1,17.1-14.3,22.7c0.3,2.2,2.2,3.7,4.3,3.6c0.2,0,0.4,0,0.6,0
		C460.8,284.2,462.4,282.1,462.1,279.7z"/>
	<path fill="#FFFFFF" d="M383.2,391.4c-2.1,1.2-2.7,3.7-1.5,5.8c1.2,2.1,3.8,2.8,5.9,1.6c0.5-0.3,12.3-6.8,22.6,4.2
		c10.5,11.1,3.9,23.5,3.5,24c-1.2,2.1-0.4,4.6,1.6,5.8c0.6,0.4,1.4,0.5,2.2,0.5c1.5,0,2.9-0.7,3.7-2.2c3.5-6.2,7.2-21.4-4.8-34.1
		C404.3,384.3,389.5,387.7,383.2,391.4z"/>
	<path fill="#FFFFFF" d="M413.7,180.9c-1.9-1.3-4.6-0.8-6,1.2l-30.6,45.1c-1.3,1.9-0.8,4.6,1.2,6c0.7,0.5,1.6,0.7,2.4,0.7
		c1.4,0,2.7-0.6,3.5-1.9l30.6-45.1C416.1,184.9,415.7,182.2,413.7,180.9z"/>
	<path fill="#FFFFFF" d="M482.3,403.1c-0.7-2.3-3.2-3.4-5.4-2.7c-2.3,0.7-3.4,3.2-2.7,5.4l11,32.7c0.6,1.8,2.3,2.9,4.1,2.9
		c0.4,0,1-0.1,1.4-0.2c2.3-0.7,3.4-3.2,2.7-5.4L482.3,403.1z"/>
	<path fill="#FFFFFF" d="M285.7,173.8l7.6-1.6c0.6-0.1,1.1,0,1.6,0.3c0.7,0.6,1.3,1.7,1.4,3.1c0.2,3.5,2.1,6.8,4.7,8.7
		c2.9,2.1,6.7,2.7,10.3,1.7c1.6-0.4,3.1-0.2,4.1,0.4c0.6,0.4,0.7,1,0.7,1.1l1.2,7.4c0.3,2.2,2.2,3.6,4.2,3.6c0.2,0,0.4,0,0.6,0
		c2.4-0.3,4-2.5,3.5-5l-1.2-7.4c-0.4-2.9-2.1-5.3-4.5-7c-3-2.1-7-2.5-10.9-1.5c-1.2,0.3-2.4,0.2-3.1-0.4c-0.7-0.5-1.1-1.3-1.2-2.4
		c-0.3-3.9-2.1-7.2-4.8-9.3c-2.5-1.8-5.6-2.5-8.6-1.8l-7.6,1.6c-2.4,0.5-3.8,2.8-3.3,5.1C281.1,172.8,283.5,174.2,285.7,173.8z"/>
	<path fill="#FFFFFF" d="M486.7,345.7c-0.8-0.7-2.1-1.2-3.3-1.1c-1.2,0.1-2.3,0.7-3,1.7l-5.1,7l-9.2-12.8c-1.4-1.9-4.1-2.4-6-1
		c-1.9,1.4-2.4,4.1-1,6l12.6,17.5c0.7,1.1,2.1,1.8,3.4,1.8l0,0c1.4,0,2.5-0.6,3.4-1.7l5.9-7.9l6.4,5.7c1.8,1.6,4.5,1.4,6-0.4
		c1.5-1.8,1.4-4.5-0.4-6L486.7,345.7z"/>
	<path fill="#FFFFFF" d="M528.2,338.5c-2.3,0.5-3.6,2.9-3.1,5.2c0.5,1.9,2.3,3.2,4.2,3.2c0.3,0,0.6,0,1.1-0.1l15.6-4v-8.8
		L528.2,338.5z"/>
	<path fill="#FFFFFF" d="M263.4,334.3c-0.5-2.3-2.9-3.6-5.2-3.1l-12.2,3v8.8l14.4-3.5C262.6,338.9,264,336.5,263.4,334.3z"/>
	<path fill="#FFFFFF" d="M281.8,242.6c-7.3,0-13.3-6-13.3-13.3c0-7.3,6-13.3,13.3-13.3s13.3,6,13.3,13.3
		C295.1,236.6,289.1,242.6,281.8,242.6z M281.8,224.6c-2.5,0-4.7,2.2-4.7,4.7c0,2.5,2.2,4.7,4.7,4.7c2.5,0,4.7-2.2,4.7-4.7
		S284.3,224.6,281.8,224.6z"/>
</g>
</svg>
